# xmcd
#
# Track frame offsets: 
#        150
#        29490
#        45382
#        57542
#        70230
#        96700
#        112102
#        129730
#        143972
#        161632
#        182912
#        196572
#        216767
#        229727
#        272472
#        285840
#        308997
#
# Disc length: 4303 seconds
#
# Revision: 3
# Processed by: cddbd v1.5.2PL0 Copyright (c) Steve Scherf et al.
# Submitted via: ExactAudioCopyFreeDBPlugin 1.0
#
DISCID=0110cd11
DTITLE=Bobby Womack - Understanding - Communication
DYEAR=2004
DGENRE=Soul
TTITLE0=I Can Understand It
TTITLE1=Woman's Gotta Have It
TTITLE2=And I Love Her
TTITLE3=Got to Get You Back
TTITLE4=Simple Man
TTITLE5=Ruby Dean
TTITLE6=Thing Called Love
TTITLE7=Sweet Caroline (Good Times Never Seemed So Good)
TTITLE8=Harry Hippie
TTITLE9=Communication
TTITLE10=Come L'Amore
TTITLE11=Fire and Rain
TTITLE12=(If You Don't Want My Love) Give it Back
TTITLE13=Medley:Monologue, They Long to be) Close to You
TTITLE14=Everything is Beautiful
TTITLE15=That's the Way I Feel About Cha
TTITLE16=Yield Not to Temptation
EXTD=
EXTT0=
EXTT1=
EXTT2=
EXTT3=
EXTT4=
EXTT5=
EXTT6=
EXTT7=
EXTT8=
EXTT9=
EXTT10=
EXTT11=
EXTT12=
EXTT13=
EXTT14=
EXTT15=
EXTT16=
PLAYORDER=
